<svg fill="none" height="24" viewBox="0 0 24 24" width="24" xmlns="http://www.w3.org/2000/svg"><g stroke="white" stroke-linecap="round" stroke-linejoin="round" stroke-width="2"><path d="m2.42012 12.7132c-.13618-.2157-.20428-.3235-.2424-.4898-.02863-.1249-.02863-.3219 0-.4468.03812-.1663.10622-.2741.2424-.4898 1.12541-1.78196 4.47528-6.2868 9.58028-6.2868s8.4549 4.50484 9.5803 6.2868c.1362.2157.2043.3235.2424.4898.0286.1249.0286.3219 0 .4468-.0381.1663-.1062.2741-.2424.4898-1.1254 1.782-4.4753 6.2868-9.5803 6.2868s-8.45487-4.5048-9.58028-6.2868z"/><path d="m12.0004 15c1.6569 0 3-1.3431 3-3s-1.3431-3-3-3-3 1.3431-3 3 1.3431 3 3 3z"/></g></svg>