<svg fill="none" height="24" viewBox="0 0 24 24" width="24" xmlns="http://www.w3.org/2000/svg"><path d="m5 4.98951c0-.97116 0-1.45674.20249-1.72441.1764-.23319.44603-.37749.73791-.39492.33504-.02001.73906.24935 1.54712.78805l10.51558 7.01037c.6677.4451 1.0015.6677 1.1178.9482.1018.2453.1018.5209 0 .7662-.1163.2805-.4501.503-1.1178.9482l-10.51558 7.0103c-.80806.5387-1.21208.8081-1.54712.7881-.29188-.0174-.56151-.1617-.73791-.3949-.20249-.2677-.20249-.7533-.20249-1.7244z" stroke="white" stroke-linecap="round" stroke-linejoin="round" stroke-width="2"/></svg>